<?xml version="1.0" encoding="utf-8"?>
<!-- Generator: Adobe Illustrator 26.1.0, SVG Export Plug-In . SVG Version: 6.00 Build 0)  -->
<svg version="1.1" id="レイヤー_1" xmlns="http://www.w3.org/2000/svg" xmlns:xlink="http://www.w3.org/1999/xlink" x="0px"
	 y="0px" viewBox="0 0 254.1 19.9" style="enable-background:new 0 0 254.1 19.9;" xml:space="preserve">
<style type="text/css">
	.st0{fill:#0041DC;}
</style>
<g>
	<g>
		<g>
			<path d="M202.1,3.6c1,0,1.8-0.8,1.8-1.8S203.1,0,202.1,0s-1.8,0.8-1.8,1.8S201.1,3.6,202.1,3.6z"/>
			<path d="M210.7,3.6c1,0,1.8-0.8,1.8-1.8S211.7,0,210.7,0c-1,0-1.8,0.8-1.8,1.8S209.7,3.6,210.7,3.6z"/>
			<path d="M210.6,12.7l-3.1,3.1V12l4.3-4.3c0.3-0.3,0.4-0.7,0.2-1.1c-0.2-0.4-0.5-0.6-0.9-0.6h-9.3c-0.4,0-0.8,0.2-0.9,0.6
				c-0.2,0.4-0.1,0.8,0.2,1.1l4.3,4.3v3.8l-3.1-3.1c-0.4-0.4-1.1-0.4-1.5,0c-0.4,0.4-0.4,1.1,0,1.5l5,5c0.2,0.2,0.5,0.3,0.8,0.3
				s0.6-0.1,0.8-0.3l5-5c0.4-0.4,0.4-1.1,0-1.5C211.7,12.2,211,12.2,210.6,12.7z"/>
		</g>
		<g>
			<path d="M224.6,3.3c0,1.2-0.8,2-2.1,2H222v1.9h-1.2V1.4h1.7C223.8,1.4,224.6,2.2,224.6,3.3z M223.4,3.4c0-0.5-0.3-0.8-0.9-0.8
				H222v1.6h0.5C223,4.2,223.4,3.9,223.4,3.4z"/>
			<path d="M224.9,4.9c0-1.4,1.1-2.3,2.2-2.3c1.1,0,2.2,0.8,2.2,2.3c0,1.4-1.1,2.3-2.2,2.3C226.1,7.2,224.9,6.4,224.9,4.9z
				 M228.2,4.9c0-0.7-0.5-1.1-1-1.1s-1,0.4-1,1.1c0,0.7,0.5,1.1,1,1.1S228.2,5.7,228.2,4.9z"/>
			<path d="M236.3,2.7l-1.6,4.4H234l-1-2.4l-1,2.4h-0.7l-1.6-4.4h1.3l0.8,2.4l1-2.4h0.6l1,2.4l0.8-2.4H236.3z"/>
			<path d="M240.8,5.4h-3.1c0.1,0.5,0.5,0.8,0.9,0.8c0.4,0,0.5,0,1.2-0.2l0.7,0.5c-0.4,0.5-1.2,0.8-1.8,0.8c-1.2,0-2.2-0.8-2.2-2.2
				c0-1.3,0.9-2.3,2.2-2.3c1.2,0,2.1,0.9,2.1,2.4C240.8,5.2,240.8,5.3,240.8,5.4z M239.6,4.4c-0.1-0.4-0.4-0.6-0.8-0.6
				c-0.4,0-0.8,0.2-1,0.6H239.6z"/>
			<path d="M244.6,2.9L244.1,4c-0.1-0.1-0.3-0.1-0.4-0.1c-0.5,0-0.7,0.4-0.7,0.9v2.4h-1.2V2.7h1.1v0.4c0.2-0.3,0.6-0.5,1-0.5
				C244.1,2.7,244.4,2.8,244.6,2.9z"/>
			<path d="M254.1,1.4v5.7h-1.1V6.9c-0.2,0.2-0.6,0.4-1.1,0.4c-1.1,0-2.1-0.8-2.1-2.3c0-1.4,1.1-2.3,2.1-2.3c0.4,0,0.8,0.1,1.1,0.3
				V1.4H254.1z M253,4.9c0-0.7-0.4-1.2-1-1.2c-0.5,0-1.1,0.4-1.1,1.2c0,0.8,0.5,1.1,1.1,1.1C252.6,6.1,253,5.6,253,4.9z"/>
			<path d="M225.1,13.8c0,1.5-1.1,2.3-2.1,2.3c-0.5,0-0.9-0.2-1.1-0.4V16h-1.1v-5.7h1.1v1.7c0.3-0.3,0.7-0.4,1.2-0.4
				C224.2,11.5,225.1,12.4,225.1,13.8z M223.9,13.8c0-0.7-0.5-1.1-1-1.1c-0.6,0-1,0.5-1,1.1c0,0.7,0.4,1.1,1,1.1
				C223.4,14.9,223.9,14.5,223.9,13.8z"/>
			<path d="M230,11.6l-2.3,6.3h-1.2l0.8-2.1l-1.6-4.3h1.3l0.9,2.7l0.9-2.7H230z"/>
			<path d="M232.2,15.3l1.6-0.3c0.1,0.9,0.6,1.3,1.2,1.3c0.7,0,1.2-0.4,1.2-1.7v-4.4h1.6v4.2c0,2.4-1.2,3.5-2.8,3.5
				C233.4,17.9,232.3,16.9,232.2,15.3z"/>
			<path d="M246,10.3v7.6h-1.5l-3-4.6v4.6h-1.6v-7.6h1.5l3,4.6v-4.6H246z"/>
			<path d="M254.1,10.3v7.6h-1.5l-3-4.6v4.6H248v-7.6h1.5l3,4.6v-4.6H254.1z"/>
			<path d="M249,5.4H246c0.1,0.5,0.5,0.8,0.9,0.8c0.4,0,0.5,0,1.2-0.2l0.7,0.5c-0.4,0.5-1.2,0.8-1.8,0.8c-1.2,0-2.2-0.8-2.2-2.2
				c0-1.3,0.9-2.3,2.2-2.3c1.2,0,2.1,0.9,2.1,2.4C249,5.2,249,5.3,249,5.4z M247.8,4.4c-0.1-0.4-0.4-0.6-0.8-0.6
				c-0.4,0-0.8,0.2-1,0.6H247.8z"/>
		</g>
	</g>
	<g>
		<g>
			<path d="M89.4,0.4v18.9h-3.6L78.7,7.2v12.2h-3.7V0.4h3.6l7.2,12.1V0.4H89.4z"/>
			<path d="M104.6,15.8v3.5H94.2V0.4h10.1V4h-6.4v4.1h5.8v3.5h-5.8v4.3H104.6z"/>
			<path d="M129.7,0.4l-5.1,18.9h-2.8L118.5,9l-3.3,10.4h-2.8l-5.1-18.9h3.8l2.8,11.9l3.2-10.2h2.6l3.2,10.1l2.8-11.9H129.7z"/>
			<path d="M131.1,15.3l3.5-1.5c0.6,1.5,1.5,2.1,2.8,2.1c1.3,0,2.2-0.9,2.2-2c0-1.4-0.9-2-2.8-2.5c-3.2-0.9-5.4-3-5.4-5.9
				c0-3.1,2.5-5.3,5.8-5.3c3.5,0,5,2,5.8,3.8l-3.4,1.4c-0.1-0.4-0.8-1.7-2.4-1.7c-1.2,0-2,0.9-2,1.8c0,1.4,0.8,2.1,2.7,2.6
				c3.2,0.9,5.6,2.7,5.6,5.7c0,3.2-2.8,5.7-6.3,5.7C134.4,19.5,132.2,18.1,131.1,15.3z"/>
			<path d="M151.8,0.2h5c5.5,0,8.9,3.4,8.9,9.5c0,6.3-3.4,9.5-8.9,9.5h-5V0.2z M156.9,15.6c3,0,5-1.1,5-5.9c0-4.8-2-6-5-6h-1.4v11.9
				H156.9z"/>
			<path d="M169.9,0.2h3.8v19h-3.8V0.2z"/>
			<path d="M177.7,9.3c0-5.8,2.9-9.3,8-9.3c3.3,0,5.5,1.6,6.4,4l-3.4,1.5c-0.6-1.3-1.6-1.9-3-1.9c-2.3,0-3.9,1.4-3.9,5.6
				c0,5.5,1.8,6.6,4,6.6c2,0,3.2-1.4,3.3-3.9h-3.5V8.4h7.3c0,0.7,0.1,1.3,0.1,2c0,5.4-2.1,9-7.2,9C180.6,19.3,177.7,16.1,177.7,9.3z
				"/>
		</g>
	</g>
	<g>
		<g>
			<path class="st0" d="M15.9,10.7c2.8,0,5.1-2.3,5.1-5.1c0-2.8-2.3-5.1-5.1-5.1H4.3C1.9,0.4,0,2.3,0,4.7v14.6h5.3V3.2h7.9
				c1.3,0,2.4,1.1,2.4,2.4c0,1.3-1.1,2.4-2.4,2.4H7.5v2.7c0,0,0.5,0,1,0.2c0.5,0.3,0.8,0.8,0.8,0.8l4.5,6.6c0.4,0.5,1.2,0.9,1.8,0.9
				h5.3L15,10.7H15.9z"/>
			<path class="st0" d="M42,9.4c1.3,0,3.1-2,3.1-4.5c0-2.5-2.2-4.5-4.6-4.5H28.7c-2.4,0-4.3,1.9-4.3,4.3c0,0.1,0,0.2,0,0.2v14.4
				h16.7c2.5,0,4.5-1.9,4.5-5C45.6,11,42.8,9.4,42,9.4z M37,16.6h-7.3V3.2H37c1.3,0,2.4,1.1,2.4,2.4c0,1.3-1.1,2.4-2.4,2.4h-5v2.7
				H37c1.6,0,2.9,1.3,2.9,2.9C39.9,15.3,38.6,16.6,37,16.6z"/>
			<path class="st0" d="M69.6,6.1h-5c0,0,0.1-0.9-1-1.8c-1.1-0.9-2.1-1.1-4.1-1.1c-2,0-4.1,0.4-5,1.4c-1,1.2-1.3,3-1.3,5.3
				c0,2.4,0.4,4.1,1.6,5.2c1.1,1,3,1.6,6.7,1.6c5.8,0,8.1-1.5,8.1-1.5v3.8c0,0-3.1,0.5-4.7,0.6c-1.6,0.1-2.7,0.3-5.1,0.3
				c-2.4,0-4.4-0.1-6.1-0.5C51.8,19,51,18.7,50,18c-1-0.7-1.4-2-1.7-2.8c-0.3-0.9-0.5-3.6-0.5-5.3c0-1.7,0.3-4.2,0.9-5.4
				c0.5-1.2,1.1-2.2,2.8-2.8c1.8-0.7,4-1.1,7.9-1.1c4.6,0,6.2,0.5,7.1,0.7c0.8,0.2,1.5,0.6,2,1.1C69.7,3.5,69.6,6.1,69.6,6.1z"/>
		</g>
	</g>
</g>
</svg>
